<svg width="120" height="40" viewBox="0 0 120 40" fill="none" xmlns="http://www.w3.org/2000/svg">
<rect width="120" height="40" rx="6" fill="black"/>
<path d="M24.7045 20.7631C24.7166 19.8432 24.9669 18.9413 25.4321 18.1412C25.8972 17.3411 26.5621 16.6688 27.3648 16.187C26.8548 15.476 26.1821 14.8908 25.4 14.478C24.6178 14.0652 23.7479 13.8361 22.8592 13.809C20.9635 13.6147 19.1258 14.9164 18.1598 14.9164C17.1751 14.9164 15.6878 13.8283 14.0862 13.8604C13.0502 13.8931 12.0406 14.1872 11.1557 14.7141C10.2708 15.241 9.54075 15.9827 9.03674 16.8669C6.85352 20.5573 8.48201 25.9809 10.5734 28.964C11.6197 30.4247 12.8426 32.0564 14.4428 31.9985C16.0086 31.9351 16.5934 31.0237 18.4835 31.0237C20.3561 31.0237 20.9048 31.9985 22.5374 31.9617C24.2176 31.9351 25.2762 30.4945 26.2859 29.02C27.0377 27.9792 27.6162 26.8288 28 25.6116C27.0238 25.2085 26.1908 24.5338 25.6048 23.6716C25.0187 22.8094 24.7056 21.7979 24.7045 20.7631Z" fill="white"/>
<path d="M21.6208 11.8471C22.5369 10.7734 22.9883 9.39335 22.879 8C21.4794 8.14352 20.1865 8.7966 19.258 9.82911C18.804 10.3335 18.4563 10.9203 18.2348 11.556C18.0132 12.1917 17.9222 12.8638 17.9669 13.5338C18.6669 13.5408 19.3595 13.3927 19.9924 13.1005C20.6254 12.8084 21.1821 12.3798 21.6208 11.8471Z" fill="white"/>
<path d="M36.791 8.50146H38.8608C39.4556 8.50146 39.9492 8.61719 40.3418 8.84863C40.7373 9.08008 41.0317 9.41846 41.2251 9.86377C41.4214 10.3062 41.5195 10.8496 41.5195 11.4941C41.5195 12.1357 41.4214 12.6807 41.2251 13.1289C41.0288 13.5771 40.7329 13.9185 40.3374 14.1528C39.9448 14.3843 39.4526 14.5 38.8608 14.5H36.791V8.50146ZM37.7886 9.34082V13.6606H38.751C39.0469 13.6606 39.3047 13.6167 39.5244 13.5288C39.7441 13.438 39.9243 13.3032 40.0649 13.1245C40.2085 12.9429 40.3154 12.7188 40.3857 12.4521C40.459 12.1826 40.4956 11.8677 40.4956 11.5073C40.4956 11.0269 40.4326 10.6255 40.3066 10.3032C40.1807 9.98096 39.9888 9.74072 39.731 9.58252C39.4731 9.42139 39.1465 9.34082 38.751 9.34082H37.7886ZM44.6748 9.77588C45.0791 9.77588 45.4365 9.85938 45.7471 10.0264C46.0576 10.1934 46.2993 10.4336 46.4722 10.7471C46.6479 11.0605 46.7358 11.4341 46.7358 11.8677V12.4697C46.7358 12.918 46.6479 13.3003 46.4722 13.6167C46.2993 13.9302 46.0576 14.1689 45.7471 14.333C45.4365 14.4971 45.0791 14.5791 44.6748 14.5791C44.2646 14.5791 43.9043 14.4971 43.5938 14.333C43.2861 14.1689 43.0444 13.9302 42.8687 13.6167C42.6929 13.3032 42.605 12.9224 42.605 12.4741V11.8721C42.605 11.4473 42.6929 11.0781 42.8687 10.7646C43.0444 10.4512 43.2876 10.208 43.5981 10.0352C43.9116 9.8623 44.2705 9.77588 44.6748 9.77588ZM44.6792 10.5625C44.4448 10.5625 44.2471 10.6226 44.0859 10.7427C43.9248 10.8599 43.8018 11.021 43.7168 11.2261C43.6318 11.4282 43.5894 11.6597 43.5894 11.9204V12.439C43.5894 12.6997 43.6289 12.9326 43.708 13.1377C43.79 13.3398 43.9116 13.4995 44.0728 13.6167C44.2368 13.7339 44.439 13.7925 44.6792 13.7925C44.9194 13.7925 45.1187 13.7339 45.2769 13.6167C45.4351 13.4995 45.5537 13.3398 45.6328 13.1377C45.7148 12.9326 45.7559 12.6997 45.7559 12.439V11.9204C45.7559 11.6597 45.7134 11.4282 45.6284 11.2261C45.5464 11.021 45.4248 10.8599 45.2637 10.7427C45.1055 10.6226 44.9106 10.5625 44.6792 10.5625ZM53.8989 9.85498L52.6772 14.5H51.6841L50.7129 11.0723H50.6865L49.7329 14.5H48.7354L47.4609 9.85498H48.5112L49.2583 13.397H49.3022L50.2383 9.85498H51.1567L52.1191 13.397H52.1631L52.9233 9.85498H53.8989ZM54.8657 14.5V9.85498H55.8237V10.6899H55.8721C55.9131 10.5669 55.9819 10.4351 56.0786 10.2944C56.1782 10.1538 56.3232 10.0337 56.5137 9.93408C56.7041 9.83447 56.9561 9.78467 57.2695 9.78467C57.7354 9.78467 58.1118 9.91504 58.3989 10.1758C58.689 10.4365 58.834 10.832 58.834 11.3623V14.5H57.8584V11.6479C57.8584 11.4106 57.8188 11.2173 57.7397 11.0679C57.6636 10.9155 57.5566 10.8027 57.4189 10.7295C57.2812 10.6533 57.1201 10.6152 56.9355 10.6152C56.6982 10.6152 56.4976 10.6724 56.3335 10.7866C56.1724 10.8979 56.0493 11.0518 55.9644 11.248C55.8823 11.4443 55.8413 11.6685 55.8413 11.9204V14.5H54.8657ZM60.3105 14.5V8.18506H61.2861V14.5H60.3105ZM64.6348 9.77588C65.0391 9.77588 65.3965 9.85938 65.707 10.0264C66.0176 10.1934 66.2593 10.4336 66.4321 10.7471C66.6079 11.0605 66.6958 11.4341 66.6958 11.8677V12.4697C66.6958 12.918 66.6079 13.3003 66.4321 13.6167C66.2593 13.9302 66.0176 14.1689 65.707 14.333C65.3965 14.4971 65.0391 14.5791 64.6348 14.5791C64.2246 14.5791 63.8643 14.4971 63.5537 14.333C63.2461 14.1689 63.0044 13.9302 62.8286 13.6167C62.6528 13.3032 62.5649 12.9224 62.5649 12.4741V11.8721C62.5649 11.4473 62.6528 11.0781 62.8286 10.7646C63.0044 10.4512 63.2476 10.208 63.5581 10.0352C63.8716 9.8623 64.2305 9.77588 64.6348 9.77588ZM64.6392 10.5625C64.4048 10.5625 64.207 10.6226 64.0459 10.7427C63.8848 10.8599 63.7617 11.021 63.6768 11.2261C63.5918 11.4282 63.5493 11.6597 63.5493 11.9204V12.439C63.5493 12.6997 63.5889 12.9326 63.668 13.1377C63.75 13.3398 63.8716 13.4995 64.0327 13.6167C64.1968 13.7339 64.3989 13.7925 64.6392 13.7925C64.8794 13.7925 65.0786 13.7339 65.2368 13.6167C65.395 13.4995 65.5137 13.3398 65.5928 13.1377C65.6748 12.9326 65.7158 12.6997 65.7158 12.439V11.9204C65.7158 11.6597 65.6733 11.4282 65.5884 11.2261C65.5063 11.021 65.3848 10.8599 65.2236 10.7427C65.0654 10.6226 64.8706 10.5625 64.6392 10.5625ZM69.2227 14.5703C68.7744 14.5703 68.4082 14.4429 68.124 14.188C67.8428 13.9302 67.7021 13.5845 67.7021 13.1509C67.7021 12.7407 67.8413 12.4097 68.1196 12.1577C68.4009 11.9028 68.8096 11.7754 69.3457 11.7754H70.519V11.3403C70.519 11.0737 70.4399 10.8774 70.2817 10.7515C70.1235 10.6226 69.9111 10.5581 69.6445 10.5581C69.4688 10.5581 69.3237 10.5815 69.2095 10.6284C69.0952 10.6724 69.0059 10.7339 68.9414 10.813C68.877 10.8892 68.8315 10.98 68.8052 11.0854H67.8779C67.8926 10.8921 67.9395 10.7163 68.0186 10.5581C68.1006 10.397 68.2148 10.2593 68.3613 10.145C68.5107 10.0278 68.6938 9.93848 68.9106 9.87695C69.1304 9.81543 69.3853 9.78467 69.6753 9.78467C70.0063 9.78467 70.3096 9.83594 70.585 9.93848C70.8604 10.0381 71.0801 10.2021 71.2441 10.4307C71.4082 10.6592 71.4902 10.9668 71.4902 11.3535V14.5H70.563V13.8979H70.519C70.4517 14.0151 70.3608 14.125 70.2466 14.2275C70.1323 14.3301 69.9902 14.4136 69.8203 14.478C69.6533 14.5396 69.4541 14.5703 69.2227 14.5703ZM69.5215 13.8145C69.709 13.8145 69.8774 13.7764 70.0269 13.7002C70.1763 13.6211 70.2949 13.5156 70.3828 13.3838C70.4736 13.252 70.519 13.1011 70.519 12.9312V12.4302H69.4995C69.2153 12.4302 69.0073 12.4932 68.8755 12.6191C68.7466 12.7451 68.6821 12.9062 68.6821 13.1025C68.6821 13.3457 68.7671 13.5259 68.937 13.6431C69.1099 13.7573 69.3047 13.8145 69.5215 13.8145ZM74.4961 9.79346C74.7158 9.79346 74.915 9.82422 75.0938 9.88574C75.2725 9.94434 75.4248 10.0308 75.5508 10.145C75.6797 10.2593 75.7734 10.3955 75.832 10.5537H75.8804V8.18506H76.856V14.5H75.9067V13.7573H75.8584C75.8262 13.8774 75.7676 13.9873 75.6826 14.0869C75.5977 14.1836 75.4937 14.2671 75.3706 14.3374C75.2476 14.4077 75.1113 14.4619 74.9619 14.5C74.8125 14.541 74.6528 14.5615 74.4829 14.5615C74.1255 14.5615 73.8149 14.4824 73.5513 14.3242C73.2876 14.1631 73.0825 13.9331 72.936 13.6343C72.7925 13.3354 72.7207 12.9824 72.7207 12.5752V11.7798C72.7207 11.3696 72.7939 11.0166 72.9404 10.7207C73.0898 10.4248 73.2979 10.1963 73.5645 10.0352C73.8311 9.87402 74.1416 9.79346 74.4961 9.79346ZM74.7686 10.5933C74.5518 10.5933 74.3643 10.646 74.2061 10.7515C74.0508 10.854 73.9292 11.0049 73.8413 11.2041C73.7563 11.4004 73.7139 11.6392 73.7139 11.9204V12.4302C73.7139 12.7114 73.7563 12.9517 73.8413 13.1509C73.9292 13.3501 74.0537 13.5024 74.2148 13.6079C74.376 13.7104 74.5679 13.7617 74.7905 13.7617C75.0103 13.7617 75.2007 13.7104 75.3618 13.6079C75.5259 13.5054 75.6533 13.3604 75.7441 13.1729C75.835 12.9824 75.8804 12.7554 75.8804 12.4917V11.7886C75.8804 11.5483 75.832 11.3389 75.7354 11.1602C75.6387 10.9814 75.5068 10.8423 75.3398 10.7427C75.1758 10.6431 74.9854 10.5933 74.7686 10.5933ZM80.7671 14.5V10.6504H79.998V9.88574H80.7671V9.42432C80.7671 8.97021 80.8843 8.63916 81.1187 8.43115C81.356 8.22021 81.7471 8.11475 82.292 8.11475C82.4033 8.11475 82.5146 8.11914 82.626 8.12793C82.7402 8.13379 82.8252 8.14111 82.8809 8.1499V8.87939C82.8428 8.87354 82.7783 8.86914 82.6875 8.86621C82.5996 8.86328 82.5234 8.86182 82.459 8.86182C82.2012 8.86182 82.0137 8.90723 81.8965 8.99805C81.7822 9.08887 81.7251 9.25732 81.7251 9.50342V9.88574H82.7842V10.6504H81.7383V14.5H80.7671ZM85.6494 9.77588C86.0537 9.77588 86.4111 9.85938 86.7217 10.0264C87.0322 10.1934 87.2739 10.4336 87.4468 10.7471C87.6226 11.0605 87.7104 11.4341 87.7104 11.8677V12.4697C87.7104 12.918 87.6226 13.3003 87.4468 13.6167C87.2739 13.9302 87.0322 14.1689 86.7217 14.333C86.4111 14.4971 86.0537 14.5791 85.6494 14.5791C85.2393 14.5791 84.8789 14.4971 84.5684 14.333C84.2607 14.1689 84.019 13.9302 83.8433 13.6167C83.6675 13.3032 83.5796 12.9224 83.5796 12.4741V11.8721C83.5796 11.4473 83.6675 11.0781 83.8433 10.7646C84.019 10.4512 84.2622 10.208 84.5728 10.0352C84.8862 9.8623 85.2451 9.77588 85.6494 9.77588ZM85.6538 10.5625C85.4194 10.5625 85.2217 10.6226 85.0605 10.7427C84.8994 10.8599 84.7764 11.021 84.6914 11.2261C84.6064 11.4282 84.564 11.6597 84.564 11.9204V12.439C84.564 12.6997 84.6035 12.9326 84.6826 13.1377C84.7646 13.3398 84.8862 13.4995 85.0474 13.6167C85.2114 13.7339 85.4136 13.7925 85.6538 13.7925C85.894 13.7925 86.0933 13.7339 86.2515 13.6167C86.4097 13.4995 86.5283 13.3398 86.6074 13.1377C86.6895 12.9326 86.7305 12.6997 86.7305 12.439V11.9204C86.7305 11.6597 86.688 11.4282 86.603 11.2261C86.521 11.021 86.3994 10.8599 86.2383 10.7427C86.0801 10.6226 85.8853 10.5625 85.6538 10.5625ZM89.0288 14.5V9.85498H90V10.5801H90.0527C90.0879 10.4746 90.1509 10.3618 90.2417 10.2417C90.3354 10.1187 90.4658 10.0132 90.6328 9.92529C90.7998 9.83447 91.0122 9.78906 91.27 9.78906C91.3345 9.78906 91.3931 9.79199 91.4458 9.79785C91.5015 9.80078 91.5527 9.80664 91.5996 9.81543V10.6768C91.5557 10.665 91.4956 10.6562 91.4194 10.6504C91.3433 10.6445 91.2642 10.6416 91.1821 10.6416C90.9214 10.6416 90.7046 10.6899 90.5317 10.7866C90.3589 10.8804 90.23 11.0107 90.145 11.1777C90.0601 11.3418 90.0176 11.5278 90.0176 11.7358V14.5H89.0288Z" fill="white"/>
<path d="M37.4678 30.5V21.21H39.3838V22.7217H39.4805C39.5566 22.4932 39.6826 22.2529 39.8584 22.001C40.04 21.7432 40.3008 21.5234 40.6406 21.3418C40.9863 21.1602 41.4434 21.0693 42.0117 21.0693C42.4805 21.0693 42.8877 21.1455 43.2334 21.2979C43.585 21.4502 43.8721 21.6582 44.0947 21.9219C44.3174 22.1855 44.4785 22.4814 44.5781 22.8096H44.6572C44.7744 22.5166 44.9531 22.2383 45.1934 21.9746C45.4336 21.7051 45.7412 21.4883 46.1162 21.3242C46.4971 21.1543 46.9512 21.0693 47.4785 21.0693C48.4277 21.0693 49.1689 21.3271 49.7021 21.8428C50.2354 22.3584 50.502 23.0732 50.502 23.9873V30.5H48.5596V24.5674C48.5596 24.1748 48.4893 23.8408 48.3486 23.5654C48.208 23.2842 48.0059 23.0703 47.7422 22.9238C47.4844 22.7773 47.168 22.7041 46.793 22.7041C46.4473 22.7041 46.1338 22.7891 45.8525 22.959C45.5713 23.123 45.3486 23.3574 45.1846 23.6621C45.0205 23.9668 44.9385 24.3242 44.9385 24.7344V30.5H43.04V24.6201C43.04 24.2158 42.9639 23.873 42.8115 23.5918C42.6592 23.3047 42.4482 23.085 42.1787 22.9326C41.915 22.7803 41.6045 22.7041 41.2471 22.7041C40.8955 22.7041 40.582 22.7861 40.3066 22.9502C40.0312 23.1143 39.8145 23.3457 39.6562 23.6445C39.498 23.9434 39.4189 24.3008 39.4189 24.7168V30.5H37.4678ZM55.4636 30.6406C54.5671 30.6406 53.8347 30.3857 53.2663 29.876C52.7038 29.3604 52.4226 28.6689 52.4226 27.8018C52.4226 26.9814 52.7009 26.3193 53.2575 25.8154C53.82 25.3057 54.6374 25.0508 55.7097 25.0508H58.0564V24.1807C58.0564 23.6475 57.8982 23.2549 57.5818 23.0029C57.2654 22.7451 56.8405 22.6162 56.3073 22.6162C55.9558 22.6162 55.6657 22.6631 55.4372 22.7568C55.2087 22.8447 55.03 22.9678 54.9011 23.126C54.7722 23.2783 54.6814 23.46 54.6286 23.6709H52.7741C52.8034 23.2842 52.8972 22.9326 53.0554 22.6162C53.2195 22.2939 53.448 22.0186 53.7409 21.79C54.0398 21.5557 54.406 21.377 54.8396 21.2539C55.279 21.1309 55.7888 21.0693 56.3689 21.0693C57.031 21.0693 57.6374 21.1719 58.1882 21.377C58.739 21.5762 59.1784 21.9043 59.5066 22.3613C59.8347 22.8184 59.9987 23.4336 59.9987 24.207V30.5H58.1443V29.2959H58.0564C57.9216 29.5303 57.74 29.75 57.5114 29.9551C57.2829 30.1602 56.9987 30.3271 56.6589 30.4561C56.3249 30.5791 55.9265 30.6406 55.4636 30.6406ZM56.0612 29.1289C56.4362 29.1289 56.7732 29.0527 57.072 28.9004C57.3708 28.7422 57.6081 28.5312 57.7839 28.2676C57.9655 28.0039 58.0564 27.7021 58.0564 27.3623V26.3604H56.0173C55.4489 26.3604 55.0329 26.4863 54.7693 26.7383C54.5114 26.9902 54.3825 27.3125 54.3825 27.7051C54.3825 28.1914 54.5525 28.5518 54.8923 28.7861C55.238 29.0146 55.6277 29.1289 56.0612 29.1289ZM61.9809 26.501V25.1562C61.9809 24.3242 62.145 23.6035 62.4731 22.9941C62.8012 22.3789 63.2641 21.9014 63.8618 21.5615C64.4653 21.2217 65.1743 21.0518 65.9887 21.0518C66.7856 21.0518 67.4536 21.1953 67.9926 21.4824C68.5375 21.7695 68.9536 22.1445 69.2407 22.6074C69.5278 23.0645 69.6772 23.5596 69.6889 24.0928H67.8432C67.8139 23.8936 67.7377 23.6855 67.6147 23.4688C67.4975 23.2461 67.3129 23.0586 67.061 22.9062C66.809 22.7539 66.4662 22.6777 66.0327 22.6777C65.353 22.6777 64.8344 22.9062 64.477 23.3633C64.1196 23.8203 63.9409 24.4326 63.9409 25.2002V26.501C63.9409 27.2803 64.1254 27.8984 64.4946 28.3555C64.8696 28.8125 65.3852 29.041 66.0414 29.041C66.4575 29.041 66.7914 28.9824 67.0434 28.8652C67.3012 28.748 67.4946 28.5898 67.6235 28.3906C67.7582 28.1855 67.8491 27.96 67.8959 27.7139H69.7416C69.7241 28.2354 69.5746 28.7217 69.2934 29.1729C69.018 29.6182 68.6049 29.9785 68.0541 30.2539C67.5092 30.5234 66.8207 30.6582 65.9887 30.6582C65.1625 30.6582 64.4506 30.4912 63.853 30.1572C63.2553 29.8174 62.7924 29.3369 62.4643 28.7158C62.142 28.0947 61.9809 27.3564 61.9809 26.501ZM79.2209 23.6709C79.2209 22.8447 79.092 22.1592 78.8341 21.6143C78.5763 21.0635 78.2248 20.6533 77.7795 20.3838C77.3341 20.1084 76.8273 19.9707 76.2589 19.9707C75.6847 19.9707 75.175 20.1084 74.7296 20.3838C74.2843 20.6533 73.9328 21.0635 73.675 21.6143C73.4171 22.1592 73.2882 22.8447 73.2882 23.6709V25.332C73.2882 26.1582 73.4171 26.8467 73.675 27.3975C73.9328 27.9424 74.2843 28.3525 74.7296 28.6279C75.175 28.9033 75.6847 29.041 76.2589 29.041C76.8273 29.041 77.3341 28.9033 77.7795 28.6279C78.2248 28.3525 78.5763 27.9424 78.8341 27.3975C79.092 26.8467 79.2209 26.1582 79.2209 25.332V23.6709ZM81.2423 25.3232C81.2423 26.4541 81.0402 27.4268 80.6359 28.2412C80.2316 29.0498 79.6574 29.668 78.9132 30.0957C78.1691 30.5234 77.2843 30.7373 76.2589 30.7373C75.2336 30.7373 74.3459 30.5234 73.5959 30.0957C72.8517 29.668 72.2775 29.0498 71.8732 28.2412C71.4689 27.4268 71.2668 26.4541 71.2668 25.3232V23.6885C71.2668 22.5518 71.4689 21.5791 71.8732 20.7705C72.2775 19.9619 72.8517 19.3438 73.5959 18.916C74.3459 18.4824 75.2336 18.2656 76.2589 18.2656C77.2843 18.2656 78.1691 18.4824 78.9132 18.916C79.6574 19.3438 80.2316 19.9619 80.6359 20.7705C81.0402 21.5791 81.2423 22.5518 81.2423 23.6885V25.3232ZM82.6532 27.3447H84.6132C84.66 27.6025 84.7538 27.8398 84.8944 28.0566C85.0409 28.2676 85.2284 28.4521 85.4569 28.6104C85.6913 28.7627 85.9608 28.8828 86.2655 28.9707C86.5761 29.0527 86.9159 29.0938 87.285 29.0938C87.8124 29.0938 88.2606 29.0176 88.6298 28.8652C88.9989 28.707 89.2802 28.4902 89.4735 28.2148C89.6727 27.9336 89.7723 27.6055 89.7723 27.2305C89.7723 26.7793 89.6171 26.4219 89.3065 26.1582C88.996 25.8887 88.5155 25.6748 87.8651 25.5166L85.8964 25.0244C85.287 24.8779 84.7626 24.6611 84.3231 24.374C83.8837 24.0869 83.5468 23.7266 83.3124 23.293C83.078 22.8594 82.9608 22.3584 82.9608 21.79C82.9608 21.0869 83.1454 20.4688 83.5145 19.9355C83.8895 19.4023 84.4022 18.9863 85.0526 18.6875C85.703 18.3887 86.4501 18.2393 87.2938 18.2393C88.1493 18.2393 88.8876 18.3828 89.5087 18.6699C90.1356 18.957 90.6278 19.3467 90.9852 19.8389C91.3485 20.3311 91.5536 20.8848 91.6005 21.5H89.6669C89.6024 21.1777 89.4647 20.8965 89.2538 20.6562C89.0487 20.4102 88.7792 20.2197 88.4452 20.085C88.1112 19.9443 87.7216 19.874 87.2762 19.874C86.5731 19.874 86.0106 20.041 85.5887 20.375C85.1727 20.709 84.9647 21.1426 84.9647 21.6758C84.9647 22.0684 85.1083 22.3965 85.3954 22.6602C85.6825 22.918 86.0927 23.1113 86.6259 23.2402L88.5858 23.7236C89.2596 23.8877 89.8339 24.1104 90.3085 24.3916C90.7831 24.6729 91.1434 25.0303 91.3895 25.4639C91.6415 25.8975 91.7675 26.4277 91.7675 27.0547C91.7675 27.793 91.5829 28.4404 91.2137 28.9971C90.8446 29.5479 90.3143 29.9756 89.6229 30.2803C88.9315 30.585 88.1024 30.7373 87.1356 30.7373C86.4384 30.7373 85.8202 30.6523 85.2811 30.4824C84.7421 30.3125 84.2821 30.0752 83.9012 29.7705C83.5204 29.46 83.2245 29.0996 83.0136 28.6895C82.8085 28.2734 82.6884 27.8252 82.6532 27.3447Z" fill="white"/>
</svg>
