<svg width="120" height="40" viewBox="0 0 120 40" fill="none" xmlns="http://www.w3.org/2000/svg">
<rect width="120" height="40" rx="6" fill="black"/>
<path d="M37.278 13.5C37.092 13.5 36.948 13.449 36.846 13.347C36.744 13.239 36.693 13.092 36.693 12.906V7.713C36.693 7.521 36.741 7.377 36.837 7.281C36.939 7.179 37.083 7.128 37.269 7.128C37.455 7.128 37.596 7.179 37.692 7.281C37.794 7.377 37.845 7.521 37.845 7.713V12.519H40.455C40.617 12.519 40.74 12.561 40.824 12.645C40.914 12.729 40.959 12.849 40.959 13.005C40.959 13.161 40.914 13.284 40.824 13.374C40.74 13.458 40.617 13.5 40.455 13.5H37.278ZM43.0877 13.59C42.7697 13.59 42.4847 13.53 42.2327 13.41C41.9867 13.284 41.7917 13.116 41.6477 12.906C41.5097 12.696 41.4407 12.459 41.4407 12.195C41.4407 11.871 41.5247 11.616 41.6927 11.43C41.8607 11.238 42.1337 11.1 42.5117 11.016C42.8897 10.932 43.3967 10.89 44.0327 10.89H44.4827V11.538H44.0417C43.6697 11.538 43.3727 11.556 43.1507 11.592C42.9287 11.628 42.7697 11.691 42.6737 11.781C42.5837 11.865 42.5387 11.985 42.5387 12.141C42.5387 12.339 42.6077 12.501 42.7457 12.627C42.8837 12.753 43.0757 12.816 43.3217 12.816C43.5197 12.816 43.6937 12.771 43.8437 12.681C43.9997 12.585 44.1227 12.456 44.2127 12.294C44.3027 12.132 44.3477 11.946 44.3477 11.736V10.701C44.3477 10.401 44.2817 10.185 44.1497 10.053C44.0177 9.921 43.7957 9.855 43.4837 9.855C43.3097 9.855 43.1207 9.876 42.9167 9.918C42.7187 9.96 42.5087 10.032 42.2867 10.134C42.1727 10.188 42.0707 10.203 41.9807 10.179C41.8967 10.155 41.8307 10.107 41.7827 10.035C41.7347 9.957 41.7107 9.873 41.7107 9.783C41.7107 9.693 41.7347 9.606 41.7827 9.522C41.8307 9.432 41.9117 9.366 42.0257 9.324C42.3017 9.21 42.5657 9.129 42.8177 9.081C43.0757 9.033 43.3097 9.009 43.5197 9.009C43.9517 9.009 44.3057 9.075 44.5817 9.207C44.8637 9.339 45.0737 9.54 45.2117 9.81C45.3497 10.074 45.4187 10.416 45.4187 10.836V12.996C45.4187 13.182 45.3737 13.326 45.2837 13.428C45.1937 13.524 45.0647 13.572 44.8967 13.572C44.7287 13.572 44.5967 13.524 44.5007 13.428C44.4107 13.326 44.3657 13.182 44.3657 12.996V12.564H44.4377C44.3957 12.774 44.3117 12.957 44.1857 13.113C44.0657 13.263 43.9127 13.38 43.7267 13.464C43.5407 13.548 43.3277 13.59 43.0877 13.59ZM48.1536 13.59C47.7876 13.59 47.4846 13.524 47.2446 13.392C47.0046 13.254 46.8246 13.05 46.7046 12.78C46.5906 12.51 46.5336 12.174 46.5336 11.772V9.594C46.5336 9.402 46.5816 9.261 46.6776 9.171C46.7736 9.075 46.9116 9.027 47.0916 9.027C47.2716 9.027 47.4096 9.075 47.5056 9.171C47.6076 9.261 47.6586 9.402 47.6586 9.594V11.79C47.6586 12.102 47.7216 12.333 47.8476 12.483C47.9736 12.633 48.1746 12.708 48.4506 12.708C48.7506 12.708 48.9966 12.606 49.1886 12.402C49.3806 12.192 49.4766 11.916 49.4766 11.574V9.594C49.4766 9.402 49.5246 9.261 49.6206 9.171C49.7166 9.075 49.8546 9.027 50.0346 9.027C50.2146 9.027 50.3526 9.075 50.4486 9.171C50.5506 9.261 50.6016 9.402 50.6016 9.594V12.996C50.6016 13.38 50.4186 13.572 50.0526 13.572C49.8786 13.572 49.7436 13.524 49.6476 13.428C49.5516 13.326 49.5036 13.182 49.5036 12.996V12.312L49.6296 12.582C49.5036 12.906 49.3116 13.155 49.0536 13.329C48.8016 13.503 48.5016 13.59 48.1536 13.59ZM52.3305 13.572C52.1505 13.572 52.0125 13.524 51.9165 13.428C51.8205 13.326 51.7725 13.182 51.7725 12.996V9.594C51.7725 9.408 51.8205 9.267 51.9165 9.171C52.0125 9.075 52.1475 9.027 52.3215 9.027C52.4955 9.027 52.6305 9.075 52.7265 9.171C52.8225 9.267 52.8705 9.408 52.8705 9.594V10.206L52.7715 9.981C52.9035 9.663 53.1075 9.423 53.3835 9.261C53.6655 9.093 53.9835 9.009 54.3375 9.009C54.6915 9.009 54.9825 9.075 55.2105 9.207C55.4385 9.339 55.6095 9.54 55.7235 9.81C55.8375 10.074 55.8945 10.41 55.8945 10.818V12.996C55.8945 13.182 55.8465 13.326 55.7505 13.428C55.6545 13.524 55.5165 13.572 55.3365 13.572C55.1565 13.572 55.0155 13.524 54.9135 13.428C54.8175 13.326 54.7695 13.182 54.7695 12.996V10.872C54.7695 10.53 54.7035 10.281 54.5715 10.125C54.4455 9.969 54.2475 9.891 53.9775 9.891C53.6475 9.891 53.3835 9.996 53.1855 10.206C52.9935 10.41 52.8975 10.683 52.8975 11.025V12.996C52.8975 13.38 52.7085 13.572 52.3305 13.572ZM59.0711 13.59C58.6091 13.59 58.2071 13.497 57.8651 13.311C57.5231 13.119 57.2591 12.849 57.0731 12.501C56.8871 12.153 56.7941 11.745 56.7941 11.277C56.7941 10.923 56.8451 10.608 56.9471 10.332C57.0551 10.05 57.2081 9.813 57.4061 9.621C57.6041 9.423 57.8441 9.273 58.1261 9.171C58.4081 9.063 58.7231 9.009 59.0711 9.009C59.2691 9.009 59.4821 9.036 59.7101 9.09C59.9441 9.144 60.1631 9.234 60.3671 9.36C60.4631 9.42 60.5261 9.492 60.5561 9.576C60.5861 9.66 60.5921 9.747 60.5741 9.837C60.5561 9.921 60.5171 9.996 60.4571 10.062C60.4031 10.122 60.3341 10.161 60.2501 10.179C60.1661 10.191 60.0731 10.17 59.9711 10.116C59.8391 10.038 59.7041 9.981 59.5661 9.945C59.4281 9.903 59.2961 9.882 59.1701 9.882C58.9721 9.882 58.7981 9.915 58.6481 9.981C58.4981 10.041 58.3691 10.131 58.2611 10.251C58.1591 10.365 58.0811 10.509 58.0271 10.683C57.9731 10.857 57.9461 11.058 57.9461 11.286C57.9461 11.73 58.0511 12.081 58.2611 12.339C58.4771 12.591 58.7801 12.717 59.1701 12.717C59.2961 12.717 59.4251 12.699 59.5571 12.663C59.6951 12.627 59.8331 12.57 59.9711 12.492C60.0731 12.438 60.1631 12.42 60.2411 12.438C60.3251 12.456 60.3941 12.498 60.4481 12.564C60.5021 12.624 60.5351 12.699 60.5471 12.789C60.5591 12.873 60.5471 12.957 60.5111 13.041C60.4811 13.125 60.4211 13.194 60.3311 13.248C60.1331 13.368 59.9231 13.455 59.7011 13.509C59.4791 13.563 59.2691 13.59 59.0711 13.59ZM61.8403 13.572C61.6603 13.572 61.5223 13.524 61.4263 13.428C61.3303 13.326 61.2823 13.182 61.2823 12.996V7.65C61.2823 7.464 61.3303 7.323 61.4263 7.227C61.5223 7.131 61.6603 7.083 61.8403 7.083C62.0203 7.083 62.1583 7.131 62.2543 7.227C62.3563 7.323 62.4073 7.464 62.4073 7.65V9.981H62.2813C62.4133 9.663 62.6173 9.423 62.8933 9.261C63.1753 9.093 63.4933 9.009 63.8473 9.009C64.2013 9.009 64.4923 9.075 64.7203 9.207C64.9483 9.339 65.1193 9.54 65.2333 9.81C65.3473 10.074 65.4043 10.41 65.4043 10.818V12.996C65.4043 13.182 65.3563 13.326 65.2603 13.428C65.1643 13.524 65.0263 13.572 64.8463 13.572C64.6663 13.572 64.5253 13.524 64.4233 13.428C64.3273 13.326 64.2793 13.182 64.2793 12.996V10.872C64.2793 10.53 64.2133 10.281 64.0813 10.125C63.9553 9.969 63.7573 9.891 63.4873 9.891C63.1573 9.891 62.8933 9.996 62.6953 10.206C62.5033 10.41 62.4073 10.683 62.4073 11.025V12.996C62.4073 13.38 62.2183 13.572 61.8403 13.572Z" fill="white"/>
<path d="M41.742 30.626C41.478 30.626 41.262 30.56 41.094 30.428C40.938 30.296 40.806 30.092 40.698 29.816L36.828 18.782C36.72 18.47 36.738 18.212 36.882 18.008C37.038 17.792 37.29 17.684 37.638 17.684C37.902 17.684 38.106 17.744 38.25 17.864C38.406 17.984 38.526 18.176 38.61 18.44L42.12 28.772H41.454L45.054 18.476C45.162 18.212 45.288 18.014 45.432 17.882C45.576 17.75 45.768 17.684 46.008 17.684C46.248 17.684 46.434 17.75 46.566 17.882C46.71 18.014 46.836 18.218 46.944 18.494L50.472 28.772H49.878L53.424 18.44C53.508 18.188 53.622 18.002 53.766 17.882C53.922 17.75 54.126 17.684 54.378 17.684C54.69 17.684 54.918 17.792 55.062 18.008C55.218 18.212 55.236 18.47 55.116 18.782L51.228 29.834C51.12 30.098 50.988 30.296 50.832 30.428C50.676 30.56 50.466 30.626 50.202 30.626C49.926 30.626 49.71 30.56 49.554 30.428C49.398 30.296 49.272 30.092 49.176 29.816L45.774 20.078H46.17L42.732 29.834C42.636 30.098 42.51 30.296 42.354 30.428C42.21 30.56 42.006 30.626 41.742 30.626ZM59.7738 30.662C58.8138 30.662 57.9858 30.482 57.2898 30.122C56.6058 29.75 56.0718 29.228 55.6878 28.556C55.3158 27.872 55.1298 27.062 55.1298 26.126C55.1298 25.214 55.3158 24.416 55.6878 23.732C56.0598 23.048 56.5698 22.514 57.2178 22.13C57.8658 21.746 58.6038 21.554 59.4318 21.554C60.0438 21.554 60.5898 21.656 61.0698 21.86C61.5498 22.052 61.9578 22.34 62.2938 22.724C62.6418 23.096 62.8998 23.552 63.0678 24.092C63.2478 24.632 63.3378 25.238 63.3378 25.91C63.3378 26.114 63.2778 26.27 63.1578 26.378C63.0378 26.474 62.8578 26.522 62.6178 26.522H56.5698V25.406H62.1138L61.8078 25.658C61.8078 25.058 61.7178 24.548 61.5378 24.128C61.3698 23.708 61.1118 23.39 60.7638 23.174C60.4278 22.946 60.0078 22.832 59.5038 22.832C58.9398 22.832 58.4598 22.964 58.0638 23.228C57.6798 23.492 57.3858 23.858 57.1818 24.326C56.9778 24.794 56.8758 25.34 56.8758 25.964V26.072C56.8758 27.128 57.1218 27.926 57.6138 28.466C58.1178 28.994 58.8438 29.258 59.7918 29.258C60.1518 29.258 60.5298 29.21 60.9258 29.114C61.3338 29.018 61.7178 28.856 62.0778 28.628C62.2818 28.508 62.4618 28.454 62.6178 28.466C62.7858 28.478 62.9178 28.532 63.0138 28.628C63.1218 28.724 63.1878 28.844 63.2118 28.988C63.2358 29.132 63.2118 29.282 63.1398 29.438C63.0678 29.582 62.9418 29.714 62.7618 29.834C62.3538 30.11 61.8798 30.32 61.3398 30.464C60.7998 30.596 60.2778 30.662 59.7738 30.662ZM69.5657 30.662C68.7977 30.662 68.1317 30.47 67.5677 30.086C67.0037 29.69 66.6257 29.168 66.4337 28.52L66.6317 28.196V29.708C66.6317 29.996 66.5537 30.224 66.3977 30.392C66.2417 30.548 66.0257 30.626 65.7497 30.626C65.4617 30.626 65.2397 30.548 65.0837 30.392C64.9277 30.224 64.8497 29.996 64.8497 29.708V18.602C64.8497 18.302 64.9277 18.074 65.0837 17.918C65.2397 17.762 65.4617 17.684 65.7497 17.684C66.0377 17.684 66.2597 17.762 66.4157 17.918C66.5837 18.074 66.6677 18.302 66.6677 18.602V23.642H66.4517C66.6437 23.006 67.0217 22.502 67.5857 22.13C68.1497 21.746 68.8097 21.554 69.5657 21.554C70.3577 21.554 71.0417 21.74 71.6177 22.112C72.1937 22.484 72.6377 23.006 72.9497 23.678C73.2737 24.35 73.4357 25.16 73.4357 26.108C73.4357 27.032 73.2737 27.842 72.9497 28.538C72.6377 29.222 72.1877 29.75 71.5997 30.122C71.0237 30.482 70.3457 30.662 69.5657 30.662ZM69.1157 29.258C69.6197 29.258 70.0577 29.138 70.4297 28.898C70.8017 28.658 71.0897 28.304 71.2937 27.836C71.4977 27.368 71.5997 26.792 71.5997 26.108C71.5997 25.076 71.3717 24.296 70.9157 23.768C70.4717 23.24 69.8717 22.976 69.1157 22.976C68.6237 22.976 68.1857 23.096 67.8017 23.336C67.4297 23.564 67.1417 23.912 66.9377 24.38C66.7337 24.848 66.6317 25.424 66.6317 26.108C66.6317 27.128 66.8597 27.908 67.3157 28.448C67.7717 28.988 68.3717 29.258 69.1157 29.258ZM79.4166 30.626C79.1766 30.626 78.9846 30.572 78.8406 30.464C78.6966 30.356 78.6126 30.212 78.5886 30.032C78.5646 29.852 78.6006 29.648 78.6966 29.42L83.5746 18.476C83.6946 18.188 83.8446 17.984 84.0246 17.864C84.2166 17.744 84.4266 17.684 84.6546 17.684C84.8706 17.684 85.0686 17.744 85.2486 17.864C85.4406 17.984 85.5966 18.188 85.7166 18.476L90.5946 29.42C90.7026 29.648 90.7446 29.858 90.7206 30.05C90.6966 30.23 90.6186 30.374 90.4866 30.482C90.3546 30.578 90.1686 30.626 89.9286 30.626C89.6646 30.626 89.4546 30.56 89.2986 30.428C89.1426 30.296 89.0046 30.092 88.8846 29.816L87.6246 26.9L88.4706 27.404H80.8026L81.6306 26.9L80.3886 29.816C80.2686 30.104 80.1366 30.314 79.9926 30.446C79.8486 30.566 79.6566 30.626 79.4166 30.626ZM84.6186 19.88L81.9006 26.324L81.4506 25.892H87.8046L87.3906 26.324L84.6546 19.88H84.6186ZM92.9745 33.866C92.6865 33.866 92.4645 33.788 92.3085 33.632C92.1525 33.476 92.0745 33.248 92.0745 32.948V22.508C92.0745 22.208 92.1525 21.98 92.3085 21.824C92.4645 21.668 92.6805 21.59 92.9565 21.59C93.2445 21.59 93.4665 21.668 93.6225 21.824C93.7785 21.98 93.8565 22.208 93.8565 22.508V24.074L93.6585 23.696C93.8505 23.048 94.2285 22.532 94.7925 22.148C95.3565 21.752 96.0225 21.554 96.7905 21.554C97.5705 21.554 98.2485 21.74 98.8245 22.112C99.4125 22.484 99.8625 23.006 100.174 23.678C100.498 24.35 100.66 25.16 100.66 26.108C100.66 27.032 100.498 27.842 100.174 28.538C99.8625 29.222 99.4185 29.75 98.8425 30.122C98.2665 30.482 97.5825 30.662 96.7905 30.662C96.0345 30.662 95.3745 30.47 94.8105 30.086C94.2465 29.702 93.8685 29.192 93.6765 28.556H93.8925V32.948C93.8925 33.248 93.8085 33.476 93.6405 33.632C93.4845 33.788 93.2625 33.866 92.9745 33.866ZM96.3405 29.258C96.8445 29.258 97.2825 29.138 97.6545 28.898C98.0265 28.658 98.3145 28.304 98.5185 27.836C98.7225 27.368 98.8245 26.792 98.8245 26.108C98.8245 25.076 98.5965 24.296 98.1405 23.768C97.6965 23.24 97.0965 22.976 96.3405 22.976C95.8485 22.976 95.4105 23.096 95.0265 23.336C94.6545 23.564 94.3665 23.912 94.1625 24.38C93.9585 24.848 93.8565 25.424 93.8565 26.108C93.8565 27.128 94.0845 27.908 94.5405 28.448C94.9965 28.988 95.5965 29.258 96.3405 29.258ZM103.139 33.866C102.851 33.866 102.629 33.788 102.473 33.632C102.317 33.476 102.239 33.248 102.239 32.948V22.508C102.239 22.208 102.317 21.98 102.473 21.824C102.629 21.668 102.845 21.59 103.121 21.59C103.409 21.59 103.631 21.668 103.787 21.824C103.943 21.98 104.021 22.208 104.021 22.508V24.074L103.823 23.696C104.015 23.048 104.393 22.532 104.957 22.148C105.521 21.752 106.187 21.554 106.955 21.554C107.735 21.554 108.413 21.74 108.989 22.112C109.577 22.484 110.027 23.006 110.339 23.678C110.663 24.35 110.825 25.16 110.825 26.108C110.825 27.032 110.663 27.842 110.339 28.538C110.027 29.222 109.583 29.75 109.007 30.122C108.431 30.482 107.747 30.662 106.955 30.662C106.199 30.662 105.539 30.47 104.975 30.086C104.411 29.702 104.033 29.192 103.841 28.556H104.057V32.948C104.057 33.248 103.973 33.476 103.805 33.632C103.649 33.788 103.427 33.866 103.139 33.866ZM106.505 29.258C107.009 29.258 107.447 29.138 107.819 28.898C108.191 28.658 108.479 28.304 108.683 27.836C108.887 27.368 108.989 26.792 108.989 26.108C108.989 25.076 108.761 24.296 108.305 23.768C107.861 23.24 107.261 22.976 106.505 22.976C106.013 22.976 105.575 23.096 105.191 23.336C104.819 23.564 104.531 23.912 104.327 24.38C104.123 24.848 104.021 25.424 104.021 26.108C104.021 27.128 104.249 27.908 104.705 28.448C105.161 28.988 105.761 29.258 106.505 29.258Z" fill="white"/>
<mask id="mask0_2010_21" style="mask-type:luminance" maskUnits="userSpaceOnUse" x="8" y="10" width="20" height="20">
<path d="M8 10H28V30H8V10Z" fill="white"/>
</mask>
<g mask="url(#mask0_2010_21)">
<path fill-rule="evenodd" clip-rule="evenodd" d="M21.903 18C21.963 18.629 22 19.292 22 20C22 20.2652 21.8946 20.5196 21.7071 20.7071C21.5196 20.8946 21.2652 21 21 21C20.7348 21 20.4804 20.8946 20.2929 20.7071C20.1054 20.5196 20 20.2652 20 20C20 19.287 19.961 18.622 19.895 18H16.092C15.953 19.33 15.952 20.67 16.088 22H18C18.2652 22 18.5196 22.1054 18.7071 22.2929C18.8946 22.4804 19 22.7348 19 23C19 23.2652 18.8946 23.5196 18.7071 23.7071C18.5196 23.8946 18.2652 24 18 24H16.416C16.885 26.08 17.618 27.41 18.001 28C18.001 28 18.79 28.013 18.927 28.002C19.1911 27.9849 19.4513 28.0723 19.6515 28.2453C19.8517 28.4184 19.9758 28.6632 19.997 28.927C20.0163 29.1914 19.9298 29.4526 19.7565 29.6533C19.5832 29.8539 19.3374 29.9776 19.073 29.997C18.979 30.004 18 30 18 30C12.486 30 8 25.514 8 20C8 14.485 12.486 10 18 10C23.514 10 28 14.485 28 20C28 20.379 27.964 20.749 27.921 21.116C27.8813 21.372 27.7439 21.6026 27.5377 21.7594C27.3315 21.9161 27.0725 21.9869 26.8153 21.9567C26.558 21.9265 26.3224 21.7978 26.1581 21.5976C25.9937 21.3974 25.9134 21.1412 25.934 20.883C25.969 20.592 26 20.3 26 20C26 19.308 25.902 18.64 25.737 18H21.903ZM17.988 12.036C17.602 12.642 16.888 13.967 16.424 16H19.561C19.095 13.967 18.376 12.642 17.988 12.036ZM10.263 22H14.082C14.0196 21.3365 13.9879 20.6704 13.987 20.004C13.987 19.334 14.02 18.666 14.083 18H10.263C10.0907 18.6528 10.0023 19.3249 10 20C10.0025 20.6751 10.0909 21.3472 10.263 22ZM11.082 24C12.0695 25.7037 13.6485 26.9852 15.519 27.601C14.9979 26.4493 14.6127 25.2408 14.371 24H11.082ZM14.373 16C14.6147 14.7583 15.0006 13.5491 15.523 12.397C13.6507 13.0123 12.07 14.2947 11.082 16H14.373ZM21.612 16H24.917C23.9249 14.2867 22.3348 13.0003 20.452 12.388C20.9794 13.5422 21.3688 14.7546 21.612 16Z" fill="white"/>
<path d="M23.223 28.945L20.673 23.335C20.6309 23.2424 20.6181 23.1391 20.6363 23.039C20.6545 22.9388 20.7028 22.8467 20.7747 22.7747C20.8467 22.7028 20.9388 22.6545 21.039 22.6363C21.1391 22.6181 21.2424 22.6309 21.335 22.673L26.945 25.223C27.0311 25.262 27.1045 25.3246 27.1565 25.4035C27.2085 25.4825 27.237 25.5746 27.2388 25.6691C27.2406 25.7637 27.2155 25.8568 27.1665 25.9376C27.1175 26.0185 27.0466 26.0838 26.962 26.126L25.22 26.996C25.1234 27.0446 25.0452 27.1232 24.997 27.22L24.126 28.962C24.0838 29.0466 24.0185 29.1175 23.9376 29.1665C23.8568 29.2155 23.7637 29.2406 23.6691 29.2388C23.5746 29.237 23.4825 29.2085 23.4035 29.1565C23.3246 29.1045 23.262 29.0311 23.223 28.945Z" fill="white"/>
</g>
</svg>
