<?xml version="1.0" encoding="UTF-8"?>
<svg version="1.1" xmlns="http://www.w3.org/2000/svg" width="790" height="790">
<path d="M0 0 C1.57479036 -0.00525911 1.57479036 -0.00525911 3.18139467 -0.01062447 C6.6927474 -0.01991443 10.20393341 -0.01502128 13.71529293 -0.01015663 C16.2609357 -0.0138941 18.80657733 -0.01849601 21.35221714 -0.02388728 C26.88373976 -0.03356719 32.41521231 -0.03703386 37.94674206 -0.03497505 C46.17276386 -0.03192088 54.39874704 -0.0402583 62.62476132 -0.0507243 C78.17342248 -0.07005455 93.72207043 -0.07569218 109.27074219 -0.07683842 C121.28075399 -0.077758 133.29076063 -0.08187725 145.30077076 -0.08823967 C148.75962334 -0.0900348 152.21847593 -0.09181443 155.67732853 -0.09358943 C156.53724918 -0.09403152 157.39716983 -0.09447362 158.28314869 -0.09492911 C182.46795282 -0.10723577 206.65275516 -0.11513042 230.83756256 -0.11424255 C231.74918133 -0.1142114 232.66080009 -0.11418024 233.60004367 -0.11414814 C238.2203475 -0.11398193 242.84065133 -0.11378384 247.46095515 -0.11357872 C248.37853811 -0.11353883 249.29612107 -0.11349894 250.24150958 -0.11345784 C252.09708634 -0.11337697 253.9526631 -0.11329337 255.80823986 -0.11320706 C284.67025764 -0.11198188 313.53222842 -0.1269894 342.39423275 -0.15435219 C374.83292884 -0.18509332 407.27159405 -0.20228343 439.71030563 -0.20042574 C443.1713587 -0.20027649 446.63241178 -0.20017907 450.09346485 -0.20011711 C451.37172855 -0.20008215 451.37172855 -0.20008215 452.67581577 -0.20004648 C466.37208782 -0.19998501 480.06831896 -0.21274081 493.76457886 -0.22998164 C507.53774174 -0.24696028 521.31084495 -0.24889454 535.08401252 -0.235763 C543.25894658 -0.22838851 551.43369906 -0.2319867 559.60861377 -0.25164768 C565.72386424 -0.26510815 571.83892255 -0.25749604 577.95416414 -0.24190123 C580.41983224 -0.23883348 582.88552016 -0.24245511 585.35116488 -0.25362138 C615.86713686 -0.38261507 643.11463449 7.28955013 665.26703548 29.19476891 C682.83159915 47.34673765 693.53106129 71.785458 693.42274189 97.09179592 C693.42624796 98.14165616 693.42975404 99.1915164 693.43336636 100.27319059 C693.44265632 103.78454332 693.43776317 107.29572933 693.43289852 110.80708885 C693.43663599 113.35273163 693.4412379 115.89837325 693.44662917 118.44401306 C693.45630908 123.97553568 693.45977575 129.50700823 693.45771694 135.03853798 C693.45466277 143.26455978 693.46300019 151.49054296 693.47346619 159.71655724 C693.49279644 175.2652184 693.49843407 190.81386635 693.49958031 206.36253811 C693.50049989 218.37254991 693.50461914 230.38255655 693.51098156 242.39256668 C693.51277669 245.85141926 693.51455632 249.31027185 693.51633132 252.76912445 C693.51699446 254.05900543 693.51699446 254.05900543 693.517671 255.37494461 C693.52997766 279.55974874 693.53787231 303.74455108 693.53698444 327.92935848 C693.53695329 328.84097725 693.53692213 329.75259602 693.53689003 330.69183959 C693.53672382 335.31214342 693.53652573 339.93244725 693.53632061 344.55275107 C693.53626078 345.92912551 693.53626078 345.92912551 693.53619973 347.3333055 C693.53611886 349.18888226 693.53603526 351.04445902 693.53594895 352.90003578 C693.53472377 381.76205356 693.54973129 410.62402434 693.57709408 439.48602867 C693.60783521 471.92472477 693.62502532 504.36338997 693.62316763 536.80210155 C693.62301838 540.26315463 693.62292096 543.7242077 693.622859 547.18526077 C693.62282404 548.46352448 693.62282404 548.46352448 693.62278837 549.76761169 C693.6227269 563.46388374 693.6354827 577.16011488 693.65272353 590.85637478 C693.66970217 604.62953766 693.67163643 618.40264087 693.65850489 632.17580844 C693.6511304 640.3507425 693.65472859 648.52549498 693.67438957 656.7004097 C693.68785004 662.81566016 693.68023793 668.93071847 693.66464312 675.04596006 C693.66157537 677.51162816 693.665197 679.97731608 693.67636327 682.44296081 C693.80535696 712.95893278 686.13319176 740.20643041 664.22797298 762.35883141 C646.07600424 779.92339507 621.63728389 790.62285721 596.33094597 790.51453781 C594.75615561 790.51979692 594.75615561 790.51979692 593.1495513 790.52516228 C589.63819857 790.53445224 586.12701256 790.52955909 582.61565304 790.52469444 C580.07001026 790.52843191 577.52436864 790.53303382 574.97872883 790.53842509 C569.44720621 790.548105 563.91573366 790.55157167 558.38420391 790.54951286 C550.15818211 790.54645869 541.93219893 790.55479611 533.70618465 790.56526211 C518.15752349 790.58459236 502.60887554 790.59022999 487.06020378 790.59137623 C475.05019198 790.59229581 463.04018534 790.59641506 451.03017521 790.60277748 C447.57132263 790.60457261 444.11247004 790.60635224 440.65361744 790.60812724 C439.36373646 790.60879038 439.36373646 790.60879038 438.04779728 790.60946692 C413.86299315 790.62177358 389.67819081 790.62966824 365.49338341 790.62878036 C364.58176464 790.62874921 363.67014587 790.62871805 362.7309023 790.62868595 C358.11059847 790.62851974 353.49029464 790.62832166 348.86999082 790.62811653 C347.95240786 790.62807664 347.0348249 790.62803675 346.08943639 790.62799565 C344.23385963 790.62791478 342.37828287 790.62783118 340.52270611 790.62774487 C311.66068833 790.62651969 282.79871755 790.64152721 253.93671322 790.66889 C221.49801712 790.69963114 189.05935192 790.71682124 156.62064034 790.71496356 C153.15958726 790.7148143 149.69853419 790.71471688 146.23748112 790.71465492 C144.95921741 790.71461996 144.95921741 790.71461996 143.6551302 790.71458429 C129.95885815 790.71452282 116.26262701 790.72727862 102.56636711 790.74451945 C88.79320423 790.76149809 75.02010102 790.76343235 61.24693345 790.75030081 C53.07199939 790.74292632 44.89724691 790.74652451 36.72233219 790.76618549 C30.60708173 790.77964597 24.49202342 790.77203385 18.37678183 790.75643905 C15.91111373 790.75337129 13.44542581 790.75699292 10.97978108 790.7681592 C-19.53619089 790.89715289 -46.78368852 783.22498768 -68.93608952 761.31976891 C-86.50065318 743.16780017 -97.20011532 718.72907981 -97.09179592 693.42274189 C-97.095302 692.37288165 -97.09880807 691.32302141 -97.10242039 690.24134722 C-97.11171035 686.72999449 -97.1068172 683.21880848 -97.10195255 679.70744896 C-97.10569002 677.16180619 -97.11029193 674.61616456 -97.1156832 672.07052475 C-97.12536311 666.53900213 -97.12882978 661.00752958 -97.12677097 655.47599983 C-97.1237168 647.24997803 -97.13205422 639.02399485 -97.14252022 630.79798057 C-97.16185047 615.24931941 -97.1674881 599.70067146 -97.16863434 584.1519997 C-97.16955392 572.1419879 -97.17367317 560.13198126 -97.18003559 548.12197113 C-97.18183072 544.66311855 -97.18361035 541.20426596 -97.18538535 537.74541336 C-97.18582744 536.88549271 -97.18626954 536.02557206 -97.18672503 535.1395932 C-97.19903169 510.95478907 -97.20692635 486.76998673 -97.20603848 462.58517933 C-97.20600732 461.67356056 -97.20597616 460.7619418 -97.20594406 459.82269822 C-97.20577785 455.20239439 -97.20557977 450.58209056 -97.20537464 445.96178674 C-97.20533475 445.04420378 -97.20529486 444.12662082 -97.20525376 443.18123231 C-97.20517289 441.32565555 -97.20508929 439.47007879 -97.20500298 437.61450203 C-97.2037778 408.75248425 -97.21878532 379.89051347 -97.24614811 351.02850914 C-97.27688925 318.58981304 -97.29407935 286.15114784 -97.29222167 253.71243626 C-97.29207241 250.25138319 -97.29197499 246.79033011 -97.29191303 243.32927704 C-97.29188972 242.47710124 -97.29186642 241.62492543 -97.2918424 240.74692612 C-97.29178093 227.05065407 -97.30453673 213.35442293 -97.32177756 199.65816303 C-97.3387562 185.88500015 -97.34069046 172.11189694 -97.32755892 158.33872937 C-97.32018443 150.16379531 -97.32378262 141.98904283 -97.3434436 133.81412812 C-97.35690408 127.69887765 -97.34929196 121.58381934 -97.33369716 115.46857775 C-97.3306294 113.00290965 -97.33425103 110.53722173 -97.34541731 108.07157701 C-97.474411 77.55560503 -89.80224579 50.3081074 -67.89702702 28.15570641 C-49.74505828 10.59114274 -25.30633792 -0.1083194 0 0 Z " fill="#33C2E2" transform="translate(96.83452701568604,-0.25726890563964844)"/>
<path d="M0 0 C6.4808174 4.32054493 9.50148775 10.68031233 12.8125 17.5 C13.2876001 18.46381592 13.7627002 19.42763184 14.25219727 20.4206543 C18.41963138 28.93371065 22.38373656 37.53906241 26.34179688 46.15087891 C31.3322238 56.97396019 36.5648325 67.67479048 41.8125 78.375 C47.97491178 90.94276507 54.03513191 103.53840769 59.87109375 116.26171875 C64.53157967 126.37520976 69.41474873 136.37479177 74.3125 146.375 C80.28844494 158.57680603 86.15257254 170.81153111 91.8203125 183.16015625 C96.89631849 194.16667176 102.23160028 205.04263587 107.56253052 215.92730713 C112.5686646 226.15369418 117.50277781 236.40031194 122.25 246.75 C127.99937911 259.28184977 134.04766646 271.65830415 140.1178894 284.03701782 C147.13957918 298.36232323 153.96509421 312.75989965 160.58813477 327.27416992 C161.70105495 329.63826539 162.89328952 331.93648379 164.12109375 334.2421875 C166.70452292 339.36213447 166.6987406 344.26471165 165.8125 349.875 C164.11263176 353.98361771 161.69126085 356.24147474 158.125 358.8125 C152.4149359 360.64402999 146.51030259 361.08202638 141 358.375 C133.81388181 353.3411152 130.72312346 343.63469254 127.25 335.9375 C121.63157728 323.65258987 115.76378348 311.50181057 109.8125 299.375 C103.64919963 286.80768998 97.58985392 274.21156142 91.75390625 261.48828125 C87.09342033 251.37479024 82.21025127 241.37520823 77.3125 231.375 C71.33655506 219.17319397 65.47242746 206.93846889 59.8046875 194.58984375 C54.72868151 183.58332824 49.39339972 172.70736413 44.06246948 161.82269287 C39.05633401 151.59630297 34.12230512 141.3496523 29.375 131 C23.15977619 117.45533004 16.61841485 104.07532488 10.05297852 90.69775391 C5.90031835 82.23378439 1.76923688 73.75985279 -2.296875 65.25390625 C-2.68852844 64.44138901 -3.08018188 63.62887177 -3.48370361 62.79173279 C-6.1875 57.10704644 -6.1875 57.10704644 -6.1875 54.875 C-6.8475 54.875 -7.5075 54.875 -8.1875 54.875 C-8.45522217 55.73335449 -8.72294434 56.59170898 -8.9987793 57.47607422 C-10.19137749 60.88608696 -11.61427414 64.01667287 -13.20703125 67.2578125 C-13.64854019 68.16167694 -13.64854019 68.16167694 -14.09896851 69.08380127 C-14.73217507 70.3798937 -15.36690558 71.67524252 -16.00302124 72.96990967 C-17.7220633 76.47029585 -19.42815488 79.97696574 -21.1328125 83.484375 C-21.47952499 84.19761932 -21.82623749 84.91086365 -22.18345642 85.64572144 C-25.33268285 92.14153131 -28.36436674 98.68890254 -31.375 105.25 C-37.21763426 117.95507376 -43.35097566 130.51043238 -49.50689697 143.06604004 C-55.22690804 154.7377642 -60.82679735 166.44680361 -66.24609375 178.26171875 C-71.30306504 189.23560314 -76.62339985 200.07697448 -81.93780518 210.92785645 C-87.46426556 222.21715695 -92.86384023 233.5473914 -98.10302734 244.97338867 C-104.01199547 257.78800706 -110.25226015 270.44220116 -116.47436523 283.10693359 C-116.89591385 283.9663002 -117.31746246 284.82566681 -117.75178528 285.71107483 C-118.54295761 287.3233939 -119.33564686 288.9349699 -120.13017273 290.54563904 C-124.35042323 298.00552254 -124.35042323 298.00552254 -126.078125 306.03515625 C-124.94821699 308.36930833 -123.52743007 310.26287275 -121.9375 312.3125 C-113.79563802 323.58713603 -110.97863211 336.20194655 -112.1875 349.875 C-113.81957927 358.81879442 -116.90093177 366.48974388 -122.1875 373.875 C-122.63867188 374.50921875 -123.08984375 375.1434375 -123.5546875 375.796875 C-130.91046299 385.18899511 -142.54827786 391.71306831 -154.1875 393.875 C-170.26411011 395.54971816 -183.83856816 393.18019658 -196.79296875 382.95703125 C-205.74073659 375.1769982 -214.05078722 363.04816054 -215.1875 350.875 C-216.34675119 334.00145489 -212.39434466 320.53597047 -201.625 307.25 C-194.17907584 299.22036095 -183.26354007 292.34049245 -172.10253906 291.76806641 C-167.12544053 291.6367584 -162.1630628 291.71915291 -157.1875 291.875 C-156.91977783 291.01664551 -156.65205566 290.15829102 -156.3762207 289.27392578 C-155.18362251 285.86391304 -153.76072586 282.73332713 -152.16796875 279.4921875 C-151.87358414 278.88952057 -151.57919952 278.28685364 -151.27589417 277.66592407 C-150.64264133 276.36974033 -150.00786518 275.07429989 -149.3717041 273.77954102 C-147.65404242 270.28194846 -145.94936164 266.77805759 -144.24609375 263.2734375 C-143.89958771 262.56060608 -143.55308167 261.84777466 -143.19607544 261.11334229 C-140.02507539 254.57264697 -136.97053501 247.98071074 -133.9375 241.375 C-128.29006968 229.09936808 -122.38161314 216.95959334 -116.43856812 204.82489014 C-111.432065 194.59777023 -106.4975643 184.35043392 -101.75 174 C-95.9957926 161.45762606 -89.94156765 149.07123246 -83.86700439 136.6817627 C-78.14736305 125.01077143 -72.5478604 113.30245021 -67.12890625 101.48828125 C-62.07535501 90.52181853 -56.76078379 79.68654358 -51.44726562 68.84429932 C-46.21300076 58.15983543 -41.08481059 47.43950597 -36.125 36.625 C-32.45675683 28.66558281 -28.74451359 20.73932003 -24.75 12.9375 C-24.37286865 12.17985352 -23.9957373 11.42220703 -23.60717773 10.64160156 C-18.63845765 1.15496362 -10.73503815 -3.78883699 0 0 Z " fill="#162951" transform="translate(329.1875,218.125)"/>
<path d="M0 0 C16.01635904 10.60410316 27.92400674 25.30556261 32.15917969 44.33837891 C35.38247582 63.5150012 31.52411435 81.74457804 20.5546875 97.69140625 C17.70600186 101.19374379 14.70683437 104.46417847 11.5546875 107.69140625 C17.12843879 120.29707228 22.93966348 132.75731492 29.03616333 145.1182251 C35.20032747 157.62213426 41.30610849 170.14391567 47.1171875 182.81640625 C52.25917076 194.02734036 57.62993842 205.11522587 63.0546875 216.19140625 C68.47944016 227.26759394 73.8499731 238.35557329 78.9921875 249.56640625 C84.32950888 261.20009894 89.92022142 272.69945075 95.5546875 284.19140625 C101.75361322 296.83489608 107.85609416 309.50480927 113.72753906 322.30444336 C119.00123763 333.75948255 124.53741521 345.08516226 130.0847168 356.40966797 C130.61910622 357.50285088 130.61910622 357.50285088 131.16429138 358.61811829 C131.83491625 359.98955006 132.50716279 361.36019043 133.18128967 362.72990417 C136.13665765 368.77483698 137.96806464 374.2251345 135.87109375 380.8515625 C133.7162937 385.63503979 131.43385221 388.4325337 126.5546875 390.69140625 C121.85325055 391.79402338 117.94830558 392.12021181 113.3046875 390.69140625 C105.20814713 384.80301325 101.61583558 376.30414733 97.4921875 367.50390625 C96.82863541 366.10897705 96.16423238 364.71445235 95.49902344 363.3203125 C90.83691767 353.52335373 86.28830917 343.6731965 81.75170898 333.81762695 C76.6010629 322.67821879 71.20349586 311.66257849 65.80575562 300.64129639 C60.7992525 290.41417648 55.8647518 280.16684017 51.1171875 269.81640625 C45.77986681 258.18271505 40.18918973 246.68334271 34.5546875 235.19140625 C28.92018167 223.69946243 23.32972125 212.20000514 17.9921875 200.56640625 C11.63813052 186.71955377 4.94524823 173.04420778 -1.74768066 159.35890198 C-2.14161011 158.55339401 -2.53553955 157.74788605 -2.94140625 156.91796875 C-3.33017944 156.12313583 -3.71895264 155.32830292 -4.11950684 154.50938416 C-8.96142225 144.60195473 -13.71754303 134.65378294 -18.4453125 124.69140625 C-19.62351562 124.85382813 -20.80171875 125.01625 -22.015625 125.18359375 C-25.79964111 125.6547229 -29.50313654 125.8252219 -33.3203125 125.81640625 C-34.43148437 125.81898438 -35.54265625 125.8215625 -36.6875 125.82421875 C-41.30146201 125.66114733 -45.85823299 125.19902609 -50.4453125 124.69140625 C-52.33788653 128.57364987 -54.22714143 132.457489 -56.11352539 136.34274292 C-56.79266549 137.74105986 -57.47235248 139.13911132 -58.15258789 140.53689575 C-61.88910621 148.21903114 -65.58037741 155.91424371 -69.08984375 163.703125 C-69.51918465 164.65063126 -69.51918465 164.65063126 -69.9571991 165.61727905 C-71.31079643 168.60534717 -72.65086776 171.59797446 -73.9675293 174.60253906 C-77.31071745 182.00582569 -80.94426583 189.24518524 -88.3203125 193.25390625 C-93.98952145 194.0475955 -98.59338056 193.59990117 -103.7578125 191.06640625 C-108.20181707 187.1391464 -110.62163499 183.37905109 -111.02734375 177.47265625 C-110.87402257 169.39233504 -106.37272443 162.33581029 -102.7578125 155.31640625 C-101.59031191 152.99524115 -100.42992374 150.6706037 -99.26960754 148.34584045 C-98.48465292 146.77463757 -97.69736267 145.20459941 -96.90776062 143.63572693 C-93.06961801 135.99955334 -89.45267775 128.26829586 -85.8828125 120.50390625 C-85.32411843 119.29306514 -84.76528502 118.08228831 -84.20629883 116.87158203 C-82.94971551 114.14618342 -81.69585059 111.41958253 -80.4453125 108.69140625 C-80.83710693 108.16901367 -81.22890137 107.64662109 -81.63256836 107.10839844 C-82.71753911 105.66177077 -83.80207452 104.21481653 -84.88623047 102.76757812 C-86.04691911 101.221932 -87.21492422 99.68177477 -88.38671875 98.14453125 C-99.02218756 83.69054472 -103.49878864 65.97022872 -100.94140625 48.1875 C-97.55484496 30.55802954 -88.82585248 14.06857177 -73.81005859 3.54541016 C-51.60425189 -10.79204911 -23.3773843 -13.83913403 0 0 Z " fill="#162951" transform="translate(541.4453125,186.30859375)"/>
<path d="M0 0 C7.85456869 5.77461322 13.56259582 12.42448356 16 22 C17.20885641 33.24236463 15.62164016 41.91809631 9.3125 51.25 C3.08370898 58.9774475 -5.52686557 63.07865466 -15.28125 64.28125 C-25.04221787 64.69368526 -33.52106795 61.10085628 -41 55 C-47.24904973 49.19631684 -51.28711812 41.55458252 -52 33 C-52.06316406 32.34644531 -52.12632812 31.69289062 -52.19140625 31.01953125 C-52.68561666 22.012148 -49.35333181 13.71872091 -43.6953125 6.78125 C-32.55067025 -4.92832803 -14.27619022 -8.74992304 0 0 Z " fill="#33C2E2" transform="translate(525,215)"/>
<path d="M0 0 C4.56728761 3.34191777 8.08008736 7.3496438 9.5625 12.875 C10.08295241 18.39179559 9.34522044 23.08523032 6.5625 27.875 C2.85672841 31.92243847 -0.53221883 34.61926818 -6.14453125 35.11328125 C-12.42456119 35.26337002 -16.6005672 35.34916284 -21.4375 30.875 C-26.2171176 25.69708093 -27.93552097 21.12866407 -27.75 14.1484375 C-27.02994294 8.91002241 -24.24317404 5.37190175 -20.3125 2 C-14.31207293 -2.43509827 -7.01657629 -2.29633406 0 0 Z " fill="#33C1E1" transform="translate(174.4375,544.125)"/>
</svg>
