<svg version="1.1" xmlns="http://www.w3.org/2000/svg" width="135px" height="135px"
	viewBox="0 0 135 135" preserveAspectRatio="xMinYMin meet">
	<rect width="100%" height="100%" fill="transparent" cx="0" cy="0" />
	<path
		d="M5,5l5,0 0,5 -5,0 0,-5z M10,5l5,0 0,5 -5,0 0,-5z M15,5l5,0 0,5 -5,0 0,-5z M20,5l5,0 0,5 -5,0 0,-5z M25,5l5,0 0,5 -5,0 0,-5z M30,5l5,0 0,5 -5,0 0,-5z M35,5l5,0 0,5 -5,0 0,-5z M50,5l5,0 0,5 -5,0 0,-5z M65,5l5,0 0,5 -5,0 0,-5z M70,5l5,0 0,5 -5,0 0,-5z M75,5l5,0 0,5 -5,0 0,-5z M80,5l5,0 0,5 -5,0 0,-5z M95,5l5,0 0,5 -5,0 0,-5z M100,5l5,0 0,5 -5,0 0,-5z M105,5l5,0 0,5 -5,0 0,-5z M110,5l5,0 0,5 -5,0 0,-5z M115,5l5,0 0,5 -5,0 0,-5z M120,5l5,0 0,5 -5,0 0,-5z M125,5l5,0 0,5 -5,0 0,-5z M5,10l5,0 0,5 -5,0 0,-5z M35,10l5,0 0,5 -5,0 0,-5z M55,10l5,0 0,5 -5,0 0,-5z M60,10l5,0 0,5 -5,0 0,-5z M65,10l5,0 0,5 -5,0 0,-5z M75,10l5,0 0,5 -5,0 0,-5z M80,10l5,0 0,5 -5,0 0,-5z M95,10l5,0 0,5 -5,0 0,-5z M125,10l5,0 0,5 -5,0 0,-5z M5,15l5,0 0,5 -5,0 0,-5z M15,15l5,0 0,5 -5,0 0,-5z M20,15l5,0 0,5 -5,0 0,-5z M25,15l5,0 0,5 -5,0 0,-5z M35,15l5,0 0,5 -5,0 0,-5z M45,15l5,0 0,5 -5,0 0,-5z M50,15l5,0 0,5 -5,0 0,-5z M55,15l5,0 0,5 -5,0 0,-5z M65,15l5,0 0,5 -5,0 0,-5z M95,15l5,0 0,5 -5,0 0,-5z M105,15l5,0 0,5 -5,0 0,-5z M110,15l5,0 0,5 -5,0 0,-5z M115,15l5,0 0,5 -5,0 0,-5z M125,15l5,0 0,5 -5,0 0,-5z M5,20l5,0 0,5 -5,0 0,-5z M15,20l5,0 0,5 -5,0 0,-5z M20,20l5,0 0,5 -5,0 0,-5z M25,20l5,0 0,5 -5,0 0,-5z M35,20l5,0 0,5 -5,0 0,-5z M50,20l5,0 0,5 -5,0 0,-5z M55,20l5,0 0,5 -5,0 0,-5z M60,20l5,0 0,5 -5,0 0,-5z M80,20l5,0 0,5 -5,0 0,-5z M85,20l5,0 0,5 -5,0 0,-5z M95,20l5,0 0,5 -5,0 0,-5z M105,20l5,0 0,5 -5,0 0,-5z M110,20l5,0 0,5 -5,0 0,-5z M115,20l5,0 0,5 -5,0 0,-5z M125,20l5,0 0,5 -5,0 0,-5z M5,25l5,0 0,5 -5,0 0,-5z M15,25l5,0 0,5 -5,0 0,-5z M20,25l5,0 0,5 -5,0 0,-5z M25,25l5,0 0,5 -5,0 0,-5z M35,25l5,0 0,5 -5,0 0,-5z M55,25l5,0 0,5 -5,0 0,-5z M70,25l5,0 0,5 -5,0 0,-5z M75,25l5,0 0,5 -5,0 0,-5z M80,25l5,0 0,5 -5,0 0,-5z M95,25l5,0 0,5 -5,0 0,-5z M105,25l5,0 0,5 -5,0 0,-5z M110,25l5,0 0,5 -5,0 0,-5z M115,25l5,0 0,5 -5,0 0,-5z M125,25l5,0 0,5 -5,0 0,-5z M5,30l5,0 0,5 -5,0 0,-5z M35,30l5,0 0,5 -5,0 0,-5z M50,30l5,0 0,5 -5,0 0,-5z M75,30l5,0 0,5 -5,0 0,-5z M80,30l5,0 0,5 -5,0 0,-5z M95,30l5,0 0,5 -5,0 0,-5z M125,30l5,0 0,5 -5,0 0,-5z M5,35l5,0 0,5 -5,0 0,-5z M10,35l5,0 0,5 -5,0 0,-5z M15,35l5,0 0,5 -5,0 0,-5z M20,35l5,0 0,5 -5,0 0,-5z M25,35l5,0 0,5 -5,0 0,-5z M30,35l5,0 0,5 -5,0 0,-5z M35,35l5,0 0,5 -5,0 0,-5z M45,35l5,0 0,5 -5,0 0,-5z M55,35l5,0 0,5 -5,0 0,-5z M65,35l5,0 0,5 -5,0 0,-5z M75,35l5,0 0,5 -5,0 0,-5z M85,35l5,0 0,5 -5,0 0,-5z M95,35l5,0 0,5 -5,0 0,-5z M100,35l5,0 0,5 -5,0 0,-5z M105,35l5,0 0,5 -5,0 0,-5z M110,35l5,0 0,5 -5,0 0,-5z M115,35l5,0 0,5 -5,0 0,-5z M120,35l5,0 0,5 -5,0 0,-5z M125,35l5,0 0,5 -5,0 0,-5z M45,40l5,0 0,5 -5,0 0,-5z M50,40l5,0 0,5 -5,0 0,-5z M55,40l5,0 0,5 -5,0 0,-5z M65,40l5,0 0,5 -5,0 0,-5z M70,40l5,0 0,5 -5,0 0,-5z M75,40l5,0 0,5 -5,0 0,-5z M85,40l5,0 0,5 -5,0 0,-5z M5,45l5,0 0,5 -5,0 0,-5z M10,45l5,0 0,5 -5,0 0,-5z M15,45l5,0 0,5 -5,0 0,-5z M25,45l5,0 0,5 -5,0 0,-5z M30,45l5,0 0,5 -5,0 0,-5z M35,45l5,0 0,5 -5,0 0,-5z M40,45l5,0 0,5 -5,0 0,-5z M45,45l5,0 0,5 -5,0 0,-5z M55,45l5,0 0,5 -5,0 0,-5z M60,45l5,0 0,5 -5,0 0,-5z M70,45l5,0 0,5 -5,0 0,-5z M80,45l5,0 0,5 -5,0 0,-5z M85,45l5,0 0,5 -5,0 0,-5z M90,45l5,0 0,5 -5,0 0,-5z M95,45l5,0 0,5 -5,0 0,-5z M115,45l5,0 0,5 -5,0 0,-5z M5,50l5,0 0,5 -5,0 0,-5z M15,50l5,0 0,5 -5,0 0,-5z M20,50l5,0 0,5 -5,0 0,-5z M30,50l5,0 0,5 -5,0 0,-5z M55,50l5,0 0,5 -5,0 0,-5z M60,50l5,0 0,5 -5,0 0,-5z M70,50l5,0 0,5 -5,0 0,-5z M75,50l5,0 0,5 -5,0 0,-5z M90,50l5,0 0,5 -5,0 0,-5z M95,50l5,0 0,5 -5,0 0,-5z M125,50l5,0 0,5 -5,0 0,-5z M10,55l5,0 0,5 -5,0 0,-5z M20,55l5,0 0,5 -5,0 0,-5z M25,55l5,0 0,5 -5,0 0,-5z M35,55l5,0 0,5 -5,0 0,-5z M45,55l5,0 0,5 -5,0 0,-5z M50,55l5,0 0,5 -5,0 0,-5z M70,55l5,0 0,5 -5,0 0,-5z M90,55l5,0 0,5 -5,0 0,-5z M100,55l5,0 0,5 -5,0 0,-5z M115,55l5,0 0,5 -5,0 0,-5z M120,55l5,0 0,5 -5,0 0,-5z M125,55l5,0 0,5 -5,0 0,-5z M20,60l5,0 0,5 -5,0 0,-5z M25,60l5,0 0,5 -5,0 0,-5z M30,60l5,0 0,5 -5,0 0,-5z M40,60l5,0 0,5 -5,0 0,-5z M45,60l5,0 0,5 -5,0 0,-5z M60,60l5,0 0,5 -5,0 0,-5z M70,60l5,0 0,5 -5,0 0,-5z M75,60l5,0 0,5 -5,0 0,-5z M90,60l5,0 0,5 -5,0 0,-5z M95,60l5,0 0,5 -5,0 0,-5z M105,60l5,0 0,5 -5,0 0,-5z M120,60l5,0 0,5 -5,0 0,-5z M5,65l5,0 0,5 -5,0 0,-5z M10,65l5,0 0,5 -5,0 0,-5z M20,65l5,0 0,5 -5,0 0,-5z M35,65l5,0 0,5 -5,0 0,-5z M40,65l5,0 0,5 -5,0 0,-5z M65,65l5,0 0,5 -5,0 0,-5z M70,65l5,0 0,5 -5,0 0,-5z M80,65l5,0 0,5 -5,0 0,-5z M85,65l5,0 0,5 -5,0 0,-5z M90,65l5,0 0,5 -5,0 0,-5z M95,65l5,0 0,5 -5,0 0,-5z M110,65l5,0 0,5 -5,0 0,-5z M120,65l5,0 0,5 -5,0 0,-5z M125,65l5,0 0,5 -5,0 0,-5z M15,70l5,0 0,5 -5,0 0,-5z M20,70l5,0 0,5 -5,0 0,-5z M45,70l5,0 0,5 -5,0 0,-5z M60,70l5,0 0,5 -5,0 0,-5z M65,70l5,0 0,5 -5,0 0,-5z M75,70l5,0 0,5 -5,0 0,-5z M85,70l5,0 0,5 -5,0 0,-5z M90,70l5,0 0,5 -5,0 0,-5z M95,70l5,0 0,5 -5,0 0,-5z M110,70l5,0 0,5 -5,0 0,-5z M125,70l5,0 0,5 -5,0 0,-5z M5,75l5,0 0,5 -5,0 0,-5z M30,75l5,0 0,5 -5,0 0,-5z M35,75l5,0 0,5 -5,0 0,-5z M50,75l5,0 0,5 -5,0 0,-5z M60,75l5,0 0,5 -5,0 0,-5z M65,75l5,0 0,5 -5,0 0,-5z M75,75l5,0 0,5 -5,0 0,-5z M85,75l5,0 0,5 -5,0 0,-5z M90,75l5,0 0,5 -5,0 0,-5z M95,75l5,0 0,5 -5,0 0,-5z M100,75l5,0 0,5 -5,0 0,-5z M115,75l5,0 0,5 -5,0 0,-5z M120,75l5,0 0,5 -5,0 0,-5z M125,75l5,0 0,5 -5,0 0,-5z M10,80l5,0 0,5 -5,0 0,-5z M15,80l5,0 0,5 -5,0 0,-5z M20,80l5,0 0,5 -5,0 0,-5z M25,80l5,0 0,5 -5,0 0,-5z M40,80l5,0 0,5 -5,0 0,-5z M50,80l5,0 0,5 -5,0 0,-5z M65,80l5,0 0,5 -5,0 0,-5z M70,80l5,0 0,5 -5,0 0,-5z M85,80l5,0 0,5 -5,0 0,-5z M105,80l5,0 0,5 -5,0 0,-5z M120,80l5,0 0,5 -5,0 0,-5z M5,85l5,0 0,5 -5,0 0,-5z M15,85l5,0 0,5 -5,0 0,-5z M25,85l5,0 0,5 -5,0 0,-5z M30,85l5,0 0,5 -5,0 0,-5z M35,85l5,0 0,5 -5,0 0,-5z M40,85l5,0 0,5 -5,0 0,-5z M50,85l5,0 0,5 -5,0 0,-5z M60,85l5,0 0,5 -5,0 0,-5z M65,85l5,0 0,5 -5,0 0,-5z M70,85l5,0 0,5 -5,0 0,-5z M80,85l5,0 0,5 -5,0 0,-5z M85,85l5,0 0,5 -5,0 0,-5z M90,85l5,0 0,5 -5,0 0,-5z M95,85l5,0 0,5 -5,0 0,-5z M100,85l5,0 0,5 -5,0 0,-5z M105,85l5,0 0,5 -5,0 0,-5z M110,85l5,0 0,5 -5,0 0,-5z M45,90l5,0 0,5 -5,0 0,-5z M50,90l5,0 0,5 -5,0 0,-5z M55,90l5,0 0,5 -5,0 0,-5z M60,90l5,0 0,5 -5,0 0,-5z M80,90l5,0 0,5 -5,0 0,-5z M85,90l5,0 0,5 -5,0 0,-5z M105,90l5,0 0,5 -5,0 0,-5z M110,90l5,0 0,5 -5,0 0,-5z M120,90l5,0 0,5 -5,0 0,-5z M125,90l5,0 0,5 -5,0 0,-5z M5,95l5,0 0,5 -5,0 0,-5z M10,95l5,0 0,5 -5,0 0,-5z M15,95l5,0 0,5 -5,0 0,-5z M20,95l5,0 0,5 -5,0 0,-5z M25,95l5,0 0,5 -5,0 0,-5z M30,95l5,0 0,5 -5,0 0,-5z M35,95l5,0 0,5 -5,0 0,-5z M45,95l5,0 0,5 -5,0 0,-5z M55,95l5,0 0,5 -5,0 0,-5z M65,95l5,0 0,5 -5,0 0,-5z M80,95l5,0 0,5 -5,0 0,-5z M85,95l5,0 0,5 -5,0 0,-5z M95,95l5,0 0,5 -5,0 0,-5z M105,95l5,0 0,5 -5,0 0,-5z M110,95l5,0 0,5 -5,0 0,-5z M120,95l5,0 0,5 -5,0 0,-5z M125,95l5,0 0,5 -5,0 0,-5z M5,100l5,0 0,5 -5,0 0,-5z M35,100l5,0 0,5 -5,0 0,-5z M45,100l5,0 0,5 -5,0 0,-5z M55,100l5,0 0,5 -5,0 0,-5z M70,100l5,0 0,5 -5,0 0,-5z M75,100l5,0 0,5 -5,0 0,-5z M85,100l5,0 0,5 -5,0 0,-5z M105,100l5,0 0,5 -5,0 0,-5z M110,100l5,0 0,5 -5,0 0,-5z M5,105l5,0 0,5 -5,0 0,-5z M15,105l5,0 0,5 -5,0 0,-5z M20,105l5,0 0,5 -5,0 0,-5z M25,105l5,0 0,5 -5,0 0,-5z M35,105l5,0 0,5 -5,0 0,-5z M45,105l5,0 0,5 -5,0 0,-5z M70,105l5,0 0,5 -5,0 0,-5z M85,105l5,0 0,5 -5,0 0,-5z M90,105l5,0 0,5 -5,0 0,-5z M95,105l5,0 0,5 -5,0 0,-5z M100,105l5,0 0,5 -5,0 0,-5z M105,105l5,0 0,5 -5,0 0,-5z M110,105l5,0 0,5 -5,0 0,-5z M5,110l5,0 0,5 -5,0 0,-5z M15,110l5,0 0,5 -5,0 0,-5z M20,110l5,0 0,5 -5,0 0,-5z M25,110l5,0 0,5 -5,0 0,-5z M35,110l5,0 0,5 -5,0 0,-5z M55,110l5,0 0,5 -5,0 0,-5z M70,110l5,0 0,5 -5,0 0,-5z M75,110l5,0 0,5 -5,0 0,-5z M100,110l5,0 0,5 -5,0 0,-5z M105,110l5,0 0,5 -5,0 0,-5z M110,110l5,0 0,5 -5,0 0,-5z M115,110l5,0 0,5 -5,0 0,-5z M5,115l5,0 0,5 -5,0 0,-5z M15,115l5,0 0,5 -5,0 0,-5z M20,115l5,0 0,5 -5,0 0,-5z M25,115l5,0 0,5 -5,0 0,-5z M35,115l5,0 0,5 -5,0 0,-5z M45,115l5,0 0,5 -5,0 0,-5z M70,115l5,0 0,5 -5,0 0,-5z M75,115l5,0 0,5 -5,0 0,-5z M105,115l5,0 0,5 -5,0 0,-5z M125,115l5,0 0,5 -5,0 0,-5z M5,120l5,0 0,5 -5,0 0,-5z M35,120l5,0 0,5 -5,0 0,-5z M45,120l5,0 0,5 -5,0 0,-5z M55,120l5,0 0,5 -5,0 0,-5z M60,120l5,0 0,5 -5,0 0,-5z M65,120l5,0 0,5 -5,0 0,-5z M70,120l5,0 0,5 -5,0 0,-5z M80,120l5,0 0,5 -5,0 0,-5z M85,120l5,0 0,5 -5,0 0,-5z M95,120l5,0 0,5 -5,0 0,-5z M105,120l5,0 0,5 -5,0 0,-5z M110,120l5,0 0,5 -5,0 0,-5z M120,120l5,0 0,5 -5,0 0,-5z M5,125l5,0 0,5 -5,0 0,-5z M10,125l5,0 0,5 -5,0 0,-5z M15,125l5,0 0,5 -5,0 0,-5z M20,125l5,0 0,5 -5,0 0,-5z M25,125l5,0 0,5 -5,0 0,-5z M30,125l5,0 0,5 -5,0 0,-5z M35,125l5,0 0,5 -5,0 0,-5z M45,125l5,0 0,5 -5,0 0,-5z M50,125l5,0 0,5 -5,0 0,-5z M55,125l5,0 0,5 -5,0 0,-5z M65,125l5,0 0,5 -5,0 0,-5z M70,125l5,0 0,5 -5,0 0,-5z M80,125l5,0 0,5 -5,0 0,-5z M85,125l5,0 0,5 -5,0 0,-5z M95,125l5,0 0,5 -5,0 0,-5z M100,125l5,0 0,5 -5,0 0,-5z M120,125l5,0 0,5 -5,0 0,-5z M125,125l5,0 0,5 -5,0 0,-5z "
		stroke="transparent" fill="#00DD51" />
</svg>